<svg id="Слой_1" data-name="Слой 1" xmlns="http://www.w3.org/2000/svg" xmlns:xlink="http://www.w3.org/1999/xlink" viewBox="0 0 1955 621.5"><defs><style>.cls-1{fill:url(#Безымянный_градиент);}.cls-2{fill:none;stroke:#50ce61;stroke-linecap:round;stroke-width:4px;}</style><linearGradient id="Безымянный_градиент" x1="956.5" y1="619.89" x2="956.5" y2="0.39" gradientTransform="matrix(1, 0, 0, -1, 0, 619.89)" gradientUnits="userSpaceOnUse"><stop offset="0" stop-color="#50ce61" stop-opacity="0.6"/><stop offset="1" stop-color="#50ce61" stop-opacity="0"/></linearGradient></defs><path class="cls-1" d="M598,394.5l-124.3,20.81L320,443.48l-89.5,12-87.5,36-162,20v108H1932V0L1724,48l-68.5-9L1600,75l-61.2,45.08-25.3,6.42-28-6.42h-78.12l-40.32,14.31-42.56,9.54-19.5,26-45.5,15.17L1212,202.89,1187.5,226l-17,1.5-21,1-30,36.5H1040l-36.35,22-58.36,16.9L924,298.26H908.29l-109.59,49-33.21,22.55-47.44,2.6-31.79,8.67Z" transform="translate(21 2)"/><path class="cls-2" d="M1932,0,1724,48l-68.5-9L1600,75l-61.2,45.08-25.3,6.42-28-6.42h-78.12l-40.32,14.31-42.56,9.54-19.5,26-45.5,15.17L1212,202.89,1187.5,226l-17,1.5-21,1-30,36.5H1040l-36.35,22-58.36,16.9L924,298.26H908.29l-109.59,49-33.21,22.55-47.44,2.6-31.79,8.67L598,394.5l-124.3,20.81L320,443.48l-89.5,12-87.5,36-162,20" transform="translate(21 2)"/></svg>