<svg width="132" height="21" viewBox="0 0 132 21" fill="none" xmlns="http://www.w3.org/2000/svg">
<path d="M122.678 17.0868C122.508 16.8202 122.361 16.5824 122.315 16.1352H118.848C118.867 17.0018 119.044 17.5155 119.369 18.1577L119.37 18.1596L119.371 18.1615C119.715 18.7847 120.173 19.3138 120.746 19.748L120.748 19.7494L120.75 19.7507C121.341 20.1654 122.026 20.4753 122.803 20.6814L122.804 20.6816C123.603 20.8883 124.387 21.0001 125.304 21.0001C126.053 21.0001 126.896 20.9068 127.674 20.738C128.45 20.5696 129.153 20.2977 129.781 19.9218C130.43 19.544 130.957 19.0521 131.359 18.4464C131.765 17.8347 132 17.0041 132 16.1352C132 15.4131 131.821 14.8911 131.531 14.395C131.262 13.9004 130.895 13.4907 130.433 13.167C129.993 12.8457 129.487 12.5915 128.917 12.4036C128.354 12.218 127.781 12.0602 127.199 11.9302L127.198 11.93C126.6 11.8008 126.021 11.6808 125.461 11.57C124.906 11.4604 124.409 11.3328 123.967 11.1875C123.55 11.0259 123.21 10.8302 122.943 10.6024C122.71 10.3877 122.591 10.1076 122.591 9.7506C122.591 9.46189 122.677 9.24569 122.836 9.08805L122.838 9.08604L122.84 9.08394C123.013 8.89557 123.22 8.75906 123.463 8.67344L123.465 8.67269L123.467 8.67186C123.737 8.56505 124.016 8.49386 124.304 8.45823C124.618 8.42172 124.884 8.40377 125.101 8.40377C125.795 8.40377 126.402 8.5301 126.924 8.77919L126.925 8.77985C127.423 9.00936 127.776 9.60439 127.935 10.2974H131.377C131.278 9.50592 130.986 8.59325 130.685 8.10821C130.321 7.52256 129.939 7.05051 129.364 6.6906C128.811 6.33208 128.182 6.07815 127.479 5.92783C126.798 5.75963 126.08 5.67578 125.325 5.67578C124.664 5.67578 123.967 5.74111 123.233 5.87129L123.233 5.87138C122.511 6.00269 121.846 6.2374 121.237 6.57594C120.643 6.89801 120.145 7.33395 119.743 7.88268L119.742 7.88331C119.351 8.42398 119.16 9.09512 119.16 9.88891C119.16 10.622 119.293 11.2505 119.565 11.7695L119.566 11.7711C119.836 12.2655 120.192 12.6756 120.636 12.9999L120.638 13.0013C121.096 13.3216 121.6 13.5757 122.152 13.7636L122.153 13.764C122.717 13.9497 123.299 14.1076 123.9 14.2375C124.479 14.3668 125.049 14.4868 125.609 14.5976C126.164 14.7072 126.651 14.8438 127.072 15.0067L127.075 15.0078L127.078 15.0088C127.513 15.1521 127.861 15.3473 128.125 15.5914C128.38 15.8266 128.518 16.1283 128.535 16.5054C128.552 16.8871 128.456 17.1874 128.256 17.4182L128.256 17.4188C128.065 17.6414 127.812 17.8151 127.492 17.9379C127.167 18.0631 126.813 18.1531 126.43 18.2073C126.061 18.2437 125.73 18.2618 125.437 18.2618C124.598 18.2618 123.972 18.0916 123.378 17.7353C123.082 17.5579 122.849 17.3532 122.678 17.0868Z" fill="white"/>
<path d="M108.331 17.0868C108.16 16.8202 108.013 16.5824 107.967 16.1352H104.5C104.519 17.0018 104.696 17.5155 105.021 18.1577L105.022 18.1596L105.023 18.1615C105.367 18.7847 105.826 19.3138 106.398 19.748L106.4 19.7494L106.402 19.7507C106.993 20.1654 107.678 20.4753 108.456 20.6814L108.456 20.6816C109.255 20.8883 110.039 21.0001 110.957 21.0001C111.705 21.0001 112.548 20.9068 113.326 20.738C114.102 20.5696 114.805 20.2977 115.433 19.9218C116.082 19.544 116.609 19.0521 117.011 18.4464C117.417 17.8347 117.652 17.0041 117.652 16.1352C117.652 15.4131 117.473 14.8911 117.183 14.395C116.914 13.9004 116.547 13.4907 116.085 13.167C115.645 12.8457 115.14 12.5915 114.57 12.4036C114.006 12.218 113.433 12.0602 112.851 11.9302L112.85 11.93C112.252 11.8008 111.673 11.6808 111.113 11.57C110.558 11.4604 110.061 11.3328 109.619 11.1875C109.202 11.0259 108.862 10.8302 108.595 10.6024C108.362 10.3877 108.244 10.1076 108.244 9.7506C108.244 9.46189 108.329 9.24569 108.488 9.08805L108.49 9.08604L108.492 9.08394C108.665 8.89557 108.872 8.75906 109.115 8.67344L109.117 8.67269L109.119 8.67186C109.389 8.56505 109.668 8.49386 109.956 8.45823C110.271 8.42172 110.536 8.40377 110.754 8.40377C111.448 8.40377 112.054 8.5301 112.576 8.77919L112.577 8.77985C113.075 9.00936 113.428 9.60439 113.587 10.2974H117.029C116.93 9.50592 116.638 8.59325 116.337 8.10821C115.973 7.52256 115.591 7.05051 115.017 6.6906C114.463 6.33208 113.834 6.07815 113.132 5.92783C112.45 5.75963 111.732 5.67578 110.977 5.67578C110.316 5.67578 109.619 5.74111 108.885 5.87129L108.885 5.87138C108.164 6.00269 107.498 6.2374 106.889 6.57594C106.295 6.89801 105.797 7.33395 105.395 7.88268L105.394 7.88331C105.004 8.42398 104.812 9.09512 104.812 9.88891C104.812 10.622 104.945 11.2505 105.217 11.7695L105.218 11.7711C105.488 12.2655 105.844 12.6756 106.288 12.9999L106.29 13.0013C106.748 13.3216 107.252 13.5757 107.804 13.7636L107.805 13.764C108.369 13.9497 108.951 14.1076 109.552 14.2375C110.131 14.3668 110.701 14.4868 111.262 14.5976C111.816 14.7072 112.303 14.8438 112.724 15.0067L112.727 15.0078L112.73 15.0088C113.165 15.1521 113.513 15.3473 113.777 15.5914C114.032 15.8266 114.17 16.1283 114.187 16.5054C114.205 16.8871 114.108 17.1874 113.908 17.4182L113.908 17.4188C113.717 17.6414 113.464 17.8151 113.144 17.9379C112.819 18.0631 112.465 18.1531 112.082 18.2073C111.713 18.2437 111.382 18.2618 111.089 18.2618C110.25 18.2618 109.624 18.0916 109.03 17.7353C108.734 17.5579 108.501 17.3532 108.331 17.0868Z" fill="white"/>
<path d="M96.0959 21.0001C99.7224 21.0001 102.255 18.6536 102.903 16.0963H99.4783C98.5058 18.395 96.0959 18.395 96.0959 18.395C93.7255 18.395 92.2074 16.8051 92.177 14.2861H103.016L103.065 13.1847C103.065 8.02232 99.7629 5.67578 95.9338 5.67578C91.4767 5.67578 88.4783 8.95136 88.4783 13.4912C88.4783 18.1076 91.4058 21.0001 96.0959 21.0001ZM92.1871 12.1924C92.2985 10.3152 93.7674 8.73487 95.9554 8.73487C98.0624 8.73487 99.4806 10.1907 99.5008 12.1924H92.1871Z" fill="white"/>
<path d="M77.7174 12.0001C77.7174 9.73626 79.3043 8.71629 80.8261 8.71629C82.481 8.71629 83.6956 10.1136 83.6956 12.0001V20.7568H87.0435V11.2952C87.0435 7.72535 84.894 5.67575 82.0217 5.67575C79.8342 5.67575 78.3831 6.93067 77.7174 8.59467V5.919H74.3695V20.7568H77.7174V12.0001Z" fill="white"/>
<path d="M73.0542 2.63495C73.0542 3.77684 72.1442 4.70252 71.0216 4.70252C69.899 4.70252 68.989 3.77684 68.989 2.63495C68.989 1.49306 69.899 0.567383 71.0216 0.567383C72.1442 0.567383 73.0542 1.49306 73.0542 2.63495Z" fill="white"/>
<path d="M69.3477 20.7568H72.6955V5.91895H69.3477V20.7568Z" fill="white"/>
<path d="M58.3523 17.0868C58.1817 16.8202 58.0344 16.5824 57.9891 16.1352H54.5217C54.5408 17.0018 54.7176 17.5155 55.0425 18.1577L55.0434 18.1596L55.0445 18.1615C55.3884 18.7847 55.8472 19.3138 56.4202 19.748L56.422 19.7494L56.4238 19.7507C57.0151 20.1654 57.7001 20.4753 58.4772 20.6814L58.4779 20.6816C59.2765 20.8883 60.0608 21.0001 60.9783 21.0001C61.7271 21.0001 62.5699 20.9068 63.3477 20.738C64.1241 20.5696 64.8268 20.2977 65.4545 19.9218C66.104 19.544 66.6306 19.0521 67.0327 18.4464C67.4388 17.8347 67.6739 17.0041 67.6739 16.1352C67.6739 15.4131 67.4944 14.8911 67.2051 14.395C66.9354 13.9004 66.5691 13.4907 66.107 13.167C65.667 12.8457 65.1613 12.5915 64.5913 12.4036C64.0278 12.218 63.4549 12.0602 62.8727 11.9302L62.8719 11.93C62.2742 11.8008 61.6952 11.6808 61.1347 11.57C60.5802 11.4604 60.0824 11.3328 59.641 11.1875C59.2238 11.0259 58.8835 10.8302 58.6171 10.6024C58.384 10.3877 58.2653 10.1076 58.2653 9.7506C58.2653 9.46189 58.3503 9.24569 58.5098 9.08805L58.5119 9.08604L58.5138 9.08394C58.687 8.89557 58.8942 8.75906 59.1367 8.67344L59.1389 8.67269L59.141 8.67186C59.4111 8.56505 59.6901 8.49386 59.9782 8.45823C60.2923 8.42172 60.5577 8.40377 60.7752 8.40377C61.4693 8.40377 62.0758 8.5301 62.5978 8.77919L62.5992 8.77985C63.0968 9.00936 63.4499 9.60439 63.6087 10.2974H67.0505C66.9516 9.50592 66.6598 8.59325 66.3587 8.10821C65.9952 7.52256 65.6129 7.05051 65.0383 6.6906C64.4844 6.33208 63.8557 6.07815 63.1533 5.92783C62.472 5.75963 61.7538 5.67578 60.9991 5.67578C60.3381 5.67578 59.6407 5.74111 58.9069 5.87129L58.9064 5.87138C58.1853 6.00269 57.5198 6.2374 56.9108 6.57594C56.3168 6.89801 55.8184 7.33395 55.4164 7.88268L55.416 7.88331C55.0253 8.42398 54.8338 9.09512 54.8338 9.88891C54.8338 10.622 54.9669 11.2505 55.2391 11.7695L55.24 11.7711C55.5094 12.2655 55.8661 12.6756 56.31 12.9999L56.3119 13.0013C56.7694 13.3216 57.2741 13.5757 57.8255 13.7636L57.8267 13.764C58.3905 13.9497 58.9728 14.1076 59.5737 14.2375C60.1528 14.3668 60.7227 14.4868 61.2833 14.5976C61.8376 14.7072 62.325 14.8438 62.7462 15.0067L62.7491 15.0078L62.752 15.0088C63.187 15.1521 63.5346 15.3473 63.7992 15.5914C64.0542 15.8266 64.1914 16.1283 64.2088 16.5054C64.2263 16.8871 64.13 17.1874 63.9299 17.4182L63.9294 17.4188C63.7388 17.6414 63.4858 17.8151 63.1662 17.9379C62.8405 18.0631 62.4865 18.1531 62.104 18.2073C61.7349 18.2437 61.404 18.2618 61.1111 18.2618C60.2722 18.2618 59.6462 18.0916 59.0516 17.7353C58.7554 17.5579 58.5227 17.3532 58.3523 17.0868Z" fill="white"/>
<path d="M49.7392 14.6757C49.7392 16.9395 48.1522 17.9595 46.6305 17.9595C44.9756 17.9595 43.7609 16.5622 43.7609 14.6757V5.91895H40.4131V15.3806C40.4131 18.9504 42.5625 21 45.4348 21C47.6223 21 49.0734 19.7451 49.7392 18.0811V20.7568H53.087V5.91895H49.7392V14.6757Z" fill="white"/>
<path d="M35.8695 11.3919C36.8408 11.741 37.6364 12.3107 38.1632 13.0755C38.7065 13.8403 38.9782 14.6843 38.9782 15.6486C38.9782 17.2614 38.4514 18.5372 37.3977 19.435C36.3605 20.3162 34.7529 20.7568 32.7608 20.7568H24.1521V3H32.5217C34.3656 3 35.8337 3.42397 36.805 4.2719C37.7764 5.11984 38.2608 6.25828 38.2608 7.62162C38.2608 9.36737 37.4335 10.5938 35.8695 11.3919ZM32.3352 5.76826H27.4859V10.407H32.3352C33.1748 10.407 33.8169 10.1991 34.2614 9.78348C34.7224 9.3512 34.9529 8.76097 34.9529 8.01279C34.9529 7.31449 34.7224 6.76583 34.2614 6.3668C33.8005 5.96777 33.1584 5.76826 32.3352 5.76826ZM27.4859 17.9636H32.6809C33.6194 17.9636 34.3355 17.7557 34.8294 17.3401C35.3233 16.9078 35.5703 16.3009 35.5703 15.5195C35.5703 13.8735 34.6072 13.0505 32.6809 13.0505H27.4859V17.9636Z" fill="white"/>
<path d="M17.4564 3H13.1521L5.73901 11.8784L13.1521 20.7568H17.4564L10.0712 11.8784L17.4564 3Z" fill="#FF1919"/>
<path d="M3.34783 3H0V20.7568H3.34783V3Z" fill="#FF1919"/>
</svg>
